<?xml version="1.0" encoding="UTF-8"?><svg id="a" xmlns="http://www.w3.org/2000/svg" xmlns:xlink="http://www.w3.org/1999/xlink" viewBox="0 0 166.02 60.99"><defs><style>.c{fill:none;}.c,.d,.e{stroke-width:0px;}.f{clip-path:url(#b);}.d{fill:#efa027;}.e{fill:#044e5a;}</style><clipPath id="b"><rect class="c" x="3.01" y="6.71" width="160" height="47.56"/></clipPath></defs><g class="f"><path class="e" d="M19.88,21.83c-1.14-.37-2.62-.57-4.46-.59l-3.51-.04c-.89-.02-1.48-.13-1.79-.31-.31-.19-.46-.43-.46-.72,0-.43.26-.75.79-.96.53-.22,1.25-.35,2.17-.4.72-.04,1.33-.01,1.83.08.5.09.89.24,1.17.45.28.21.44.46.49.77l6.57-.35c-.08-1.29-.56-2.4-1.42-3.33-.86-.93-2.02-1.62-3.48-2.08-1.46-.46-3.14-.64-5.03-.54-1.89.1-3.63.43-5.08.99-1.44.56-2.57,1.33-3.37,2.33-.8,1-1.2,2.21-1.2,3.65,0,1.71.63,3.05,1.88,4.02,1.25.97,3.29,1.48,6.11,1.52l3.11.04c.99.02,1.64.12,1.96.32.32.2.48.45.48.76,0,.46-.28.81-.84,1.04-.56.23-1.34.38-2.34.43-.77.04-1.43,0-1.98-.11-.55-.11-.99-.3-1.3-.54-.32-.25-.51-.56-.58-.93l-6.57.35c.03,1.35.48,2.51,1.34,3.49.86.98,2.06,1.71,3.6,2.19,1.54.48,3.32.67,5.36.56,1.97-.11,3.7-.49,5.17-1.16,1.48-.67,2.63-1.55,3.45-2.65.82-1.1,1.23-2.36,1.23-3.78,0-1.13-.26-2.06-.79-2.8-.53-.74-1.36-1.3-2.49-1.67Z"/><path class="e" d="M31.9,25.55l8.02-.43v6.89l6.47-.35V12.46l-6.47.35v6.48l-8.02.43v-6.48l-6.47.35v19.2l6.47-.34v-6.89Z"/><path class="e" d="M67.09,30.55v-5.22l-11.36.61.34-2.12,10.09-.54v-4.56l-10.09.54-.34-2.08,11.23-.6v-5.22l-18.07.97,1.38,9.53-1.38,9.67,18.19-.97Z"/><path class="e" d="M76.21,23.66l1.92-.1,4.27,6.17,7.39-.4-4.85-6.73c.18-.08.36-.15.53-.24,1.13-.59,2-1.38,2.63-2.38s.94-2.13.94-3.39-.31-2.41-.94-3.33c-.63-.92-1.5-1.62-2.63-2.1-1.13-.48-2.44-.67-3.95-.59l-11.78.63v19.2l6.47-.35v-6.4h0ZM82,15.65c.35.29.53.72.53,1.3s-.17,1.03-.53,1.36c-.35.33-.84.51-1.48.54l-4.31.23v-3.58l4.31-.23c.64-.03,1.13.09,1.48.38Z"/><path class="e" d="M105.96,28.47c1.4-.08,2.57-.38,3.51-.9.93-.53,1.63-1.22,2.09-2.08.46-.86.69-1.81.69-2.85s-.24-1.86-.71-2.56c-.48-.7-1.19-1.23-2.14-1.59-.32-.12-.67-.21-1.04-.29.1-.06.21-.11.3-.17.83-.55,1.42-1.2,1.79-1.95.37-.75.55-1.55.55-2.39,0-1.47-.49-2.59-1.48-3.36-.99-.77-2.35-1.12-4.08-1.02l-14.23.76,1.43,9.27-1.43,9.93,14.76-.79h0ZM105.68,22.44c0,.51-.16.93-.48,1.24-.32.32-.75.49-1.3.52l-5.94.32.51-3.36,5.39-.29c.6-.03,1.06.11,1.37.41.31.31.46.69.46,1.15h0ZM104.03,14.13c.27.24.4.56.4.95,0,.43-.15.78-.44,1.07-.29.29-.66.44-1.09.47l-4.46.24-.45-2.79,4.91-.26c.48-.03.86.08,1.13.32Z"/><path class="e" d="M132.12,27.07v-5.22l-11.36.61.34-2.12,10.09-.54v-4.56l-10.09.54-.34-2.08,11.23-.6v-5.22l-18.07.97,1.38,9.53-1.38,9.67,18.19-.97Z"/><path class="e" d="M140.44,26.62l6.46-.35v-13.31l6.77-.36v-5.89l-20,1.07v5.89l6.77-.36v13.31Z"/><path class="d" d="M41.36,35.41c-1.71-.7-3.71-.99-6-.87l-9.97.53v19.2l9.97-.53c2.29-.12,4.29-.63,6-1.51,1.71-.89,3.04-2.07,4-3.57.95-1.49,1.43-3.2,1.43-5.13s-.48-3.61-1.43-4.99c-.95-1.38-2.28-2.42-4-3.13ZM39.75,45.89c-.35.57-.86,1.03-1.52,1.36-.66.33-1.45.53-2.37.58l-4.06.22v-7.42l4.06-.22c.92-.05,1.71.06,2.37.32.66.26,1.17.66,1.52,1.19.35.53.53,1.18.53,1.97s-.17,1.44-.53,2.01Z"/><path class="d" d="M65.82,33.7c-1.71-.74-3.71-1.05-6-.93-2.29.12-4.29.65-6,1.58-1.71.93-3.04,2.17-4,3.73-.95,1.56-1.43,3.35-1.43,5.36s.48,3.75,1.43,5.21c.95,1.46,2.28,2.56,4,3.31,1.71.74,3.71,1.05,6,.93,2.29-.12,4.29-.65,6-1.58,1.71-.93,3.05-2.17,4-3.73.95-1.56,1.43-3.35,1.43-5.36s-.48-3.75-1.43-5.21c-.95-1.46-2.28-2.56-4-3.31ZM64.14,44.84c-.39.64-.96,1.15-1.69,1.52-.73.37-1.61.59-2.63.64-1.02.05-1.9-.07-2.63-.36-.73-.29-1.3-.74-1.69-1.34-.39-.6-.59-1.34-.59-2.21s.2-1.63.59-2.27c.39-.64.96-1.15,1.69-1.52.73-.37,1.61-.59,2.63-.64,1.02-.05,1.9.07,2.63.36.73.29,1.3.74,1.69,1.34.39.6.59,1.34.59,2.21s-.2,1.63-.59,2.27Z"/><path class="d" d="M89.21,43.26l-7.32-11.21-8.34.45v19.2l6.26-.34v-12.01l7.57,11.61,8.09-.43v-19.2l-6.27.34v11.6Z"/><path class="d" d="M119.38,30.04l-6.77.36-7.72,10.85v-10.44l-6.41.34v19.2l5.86-.31,4.7-6.25,3.27,5.83,7.32-.39-6.52-10.84,6.27-8.34Z"/><path class="d" d="M127.58,41.48l10.09-.54v-4.56l-10.09.54-.34-2.08,11.23-.6v-5.22l-18.07.97,1.38,9.53-1.38,9.67,18.19-.97v-5.22l-11.36.61.34-2.12Z"/><path class="d" d="M163.01,27.71l-7.09.38-4.88,6.71-4.9-6.19-7.09.38,8.77,11.08v7.65l6.47-.34v-7.76l8.72-11.91Z"/></g></svg>