<?xml version="1.0" encoding="UTF-8"?><svg id="a" xmlns="http://www.w3.org/2000/svg" viewBox="0 0 213.64 32.64"><defs><style>.b{fill:#fff;stroke-width:0px;}</style></defs><path class="b" d="M16.45,7.27c-.21,1.23-1.29,2.1-1.47,3.36-1.86,3.48-2.22,7.56-3.03,11.46-.33.39-.45,1.11-.96,1.17h-.15c-.87,0-1.2-1.02-1.62-1.56-.93-2.58-1.65-5.25-2.01-8.07l-.3-.3c-1.35,3.03-2.61,6.09-3.3,9.33-.36.3-.42,1.02-.93,1.02-.06,0-.12,0-.21-.06-.12.06-.21.09-.3.09-.42,0-.66-.51-.99-.75-.75-2.79-.84-5.85-.99-8.85-.06-1.17-.15-2.49-.15-3.78v-2.16c.15-.12.3-.15.45-.15.42,0,.84.27,1.26.3l.27.57.33,9.06.27.3c1.53-3.21,2.73-6.51,4.02-9.81.3-.33.69-.72,1.14-.72.15,0,.3.03.45.15.6.75.6,1.77.72,2.76.27,2.61.54,5.25,1.44,7.59.54-1.17.75-2.46,1.02-3.72.54-2.7,1.74-5.04,2.82-7.5.12-.51.72-.57,1.02-.84.63.03.87.72,1.17,1.14l.03-.03ZM22.17,22.24c0,.87-1.14,1.2-1.65,1.65-.42.21-.84.27-1.26.27-1.02-.03-2.04-.27-2.97-.75-1.56-.9-1.98-2.46-1.98-4.11,0-.69.06-1.41.15-2.07.3-.96.9-2.43,1.56-3.24.78-1.02,1.98-1.05,3.15-1.05.21,0,.45.03.69.09.81.48,1.95,1.11,2.25,2.22,0,.09.21.87.21.96,0,.96-.78,1.83-1.56,2.13-1.38.54-3.72.66-4.32.81-.21.66-.06,1.11.15,1.56.27.57,1.77,1.35,2.55,1.35.63,0,1.23-.21,1.68-.75.09-.03.18-.03.27-.03.45,0,.78.3,1.05.63.03.12.03.24.03.33ZM17.07,17.05c-.06.09,2.31-.21,2.7-.63.42-.45-.12-1.08-.51-1.08s-1.23.06-1.56.51c-.36.45-.63,1.2-.63,1.2ZM26.81,5.95c0,2.04-.81,4.11-2.46,5.25-.45-.03-.96-.39-1.14-.81.48-1.35,1.62-2.73,1.62-4.2,0-.51-.15-1.05-.51-1.59-.03-.06-.03-.12-.03-.18,0-.36.3-.69.63-.78.75.21,1.62.78,1.89,1.56l-.03.03c.03.24.03.48.03.72ZM36.86,15.64c0,.6-.21,1.14-.75,1.35-.48-.3-1.02-.6-1.62-.57-.21,0-.45.03-.69.12-1.11.48-2.13,1.38-2.28,2.4-.18,1.23.42,2.76.21,3.93-.36.15-.57.48-.96.48-.15,0-.3-.06-.45-.21-.81-1.23-1.35-2.61-1.68-4.05-.42-1.65-.63-3.42-.87-5.16v-.21c0-.36.15-.72.45-.81.18-.06.33-.09.48-.09.9,0,1.11,1.05,1.47,1.74.03.09.03.18.03.3,0,.21-.03.45-.03.66,0,.3.06.57.3.75,1.11-.81,2.16-1.71,3.48-2.01.18,0,.36,0,.54-.03.96,0,1.92.24,2.34,1.08l.03.06v.27ZM45.2,22.24c0,.87-1.14,1.2-1.65,1.65-.42.21-.84.27-1.26.27-1.02-.03-2.04-.27-2.97-.75-1.56-.9-1.98-2.46-1.98-4.11,0-.69.06-1.41.15-2.07.3-.96.9-2.43,1.56-3.24.78-1.02,1.98-1.05,3.15-1.05.21,0,.45.03.69.09.81.48,1.95,1.11,2.25,2.22,0,.09.21.87.21.96,0,.96-.78,1.83-1.56,2.13-1.38.54-3.72.66-4.32.81-.21.66-.06,1.11.15,1.56.27.57,1.77,1.35,2.55,1.35.63,0,1.23-.21,1.68-.75.09-.03.18-.03.27-.03.45,0,.78.3,1.05.63.03.12.03.24.03.33ZM40.1,17.05c-.06.09,2.31-.21,2.7-.63.42-.45-.12-1.08-.51-1.08s-1.23.06-1.56.51c-.36.45-.63,1.2-.63,1.2ZM64.76,5.83c0,.3-.03.57-.12.87-.39.33-.78.87-1.23.87-.09,0-.18-.03-.3-.12-1.47-.66-.06-3.39-1.62-3.39-.12,0-.27.03-.45.06-1.17,1.83-1.59,4.14-1.59,6.39,0,1.47.09,3.21.39,4.59l.18-.06c1.17-.39,2.04-.99,2.88-.99.42,0,.81.24,1.17.9,0,.6-.39,1.14-.93,1.35h-.18c-1.17,0-2.19.69-2.97,1.23.24,1.95,1.05,3.69,1.17,5.79-.27.39-.69.57-1.11.57-.24,0-.48-.06-.69-.18l-.45-.3c-.48-1.38-.75-3.09-1.08-4.65-.21-.24-.42-.33-.66-.33-.57,0-1.26.48-1.95.48-.09,0-.18,0-.27-.03-.33-.33-1.05-.39-1.05-1.02.81-1.08,2.43-.99,3.51-1.8v-.36c0-1.77-.18-3.69-.18-5.55,0-3.48.57-6.78,3.78-8.46,1.38.03,2.52.99,3.27,2.13.24.6.48,1.32.48,2.01ZM73.65,21.67c-.06.42-.3.93-.78,1.05-.06,0-.12,0-.18-.03-.72,0-1.17-.87-1.59-1.35-.81.6-1.29,1.74-2.25,2.25-.15.03-.3.06-.45.03-1.11,0-1.83-1.11-2.49-1.83-.54-1.44-.72-3.09-.72-4.71,0-.9.06-1.8.15-2.67.18-.24.48-.33.78-.33.27,0,.54.06.75.15l.6.78.09,4.83c0,.36.09,1.05.66,1.05.03,0,.09,0,.12-.03.81-.51,1.32-1.26,1.59-2.07.3-.9.39-1.86.39-2.73.24-.36.63-.6.99-.6.18,0,.36.06.51.15.72.72.78,1.8.81,2.91.06,1.17.12,2.34,1.02,3.15ZM77.63,22.69c-.06.51-.48.81-.78,1.23-.06,0-.12,0-.15-.03-.66,0-1.17-.54-1.47-1.02-.03-.81-.03-1.62-.03-2.43,0-2.34.06-5.25.06-7.59s-.06-4.8-.33-7.23v-.18c0-.39.12-.78.42-.9h.09c.75,0,1.38.63,1.74,1.26.24,1.56.3,3.09.3,4.65,0,2.34-.15,5.25-.15,7.62,0,1.53.06,3.06.3,4.62ZM82.64,23.53c-.06.51-.27.84-.57,1.26-.06,0-.57-.03-.6-.06-.6-.24-1.05-1.68-1.08-2.46-.09-3.15.18-6.09.18-9.24,0-2.4-.06-3.99-.12-6.42-.03-1.32.6-1.95.96-2.1.78,0,1.02.66,1.11,1.35.24,1.56.06,3.75.06,5.31,0,2.34-.18,3.42-.18,5.79,0,1.53,0,5.01.24,6.57ZM101.89,18.16c0,.3-.03.6-.12.87l.03-.03c-.45,1.47-1.5,2.76-2.79,3.93-.6.36-1.32.57-2.07.57-.57,0-1.14-.15-1.65-.45-2.31-1.38-2.76-2.31-2.76-4.17,0-.69.09-1.38.36-1.89,1.29-1.02,2.58-2.82,4.35-2.94.24-.06.48-.09.69-.09,1.08,0,1.95.57,2.67,1.35.75.78,1.29,1.77,1.29,2.85ZM99.52,18.07c0-.18-.03-.36-.06-.54-.27-.54-.78-1.14-1.44-1.17-.12,0-.24.03-.36.06-1.02.33-2.19,1.08-2.55,2.16-.12.15-.18.33-.18.54,0,.96.66,1.86,1.71,1.86.57,0,1.17-.24,1.74-.69.6-.63,1.14-1.32,1.14-2.19v-.03ZM113.07,5.83c0,.3-.03.57-.12.87-.39.33-.78.87-1.23.87-.09,0-.18-.03-.3-.12-1.47-.66-.06-3.39-1.62-3.39-.12,0-.27.03-.45.06-1.17,1.83-1.59,4.14-1.59,6.39,0,1.47.09,3.21.39,4.59l.18-.06c1.17-.39,2.04-.99,2.88-.99.42,0,.81.24,1.17.9,0,.6-.39,1.14-.93,1.35h-.18c-1.17,0-2.19.69-2.97,1.23.24,1.95,1.05,3.69,1.17,5.79-.27.39-.69.57-1.11.57-.24,0-.48-.06-.69-.18l-.45-.3c-.48-1.38-.75-3.09-1.08-4.65-.21-.24-.42-.33-.66-.33-.57,0-1.26.48-1.95.48-.09,0-.18,0-.27-.03-.33-.33-1.05-.39-1.05-1.02.81-1.08,2.43-.99,3.51-1.8v-.36c0-1.77-.18-3.69-.18-5.55,0-3.48.57-6.78,3.78-8.46,1.38.03,2.52.99,3.27,2.13.24.6.48,1.32.48,2.01ZM129.64,15.85c.39,3.21,1.68,6.06,1.86,9.36-.42,2.22-1.23,5.01-3.78,5.64-.33.09-.66.12-.96.09-1.47,0-2.61-.87-3.57-2.1-.03-.09-.03-.18-.03-.27,0-.54.3-.96.63-1.38,1.32,0,1.53,1.71,2.85,1.68.75,0,1.38-.42,1.8-1.05s.69-1.68.69-3.03-.24-3.27-.81-4.26c-.96.57-2.1,1.56-3.24,1.59-.42,0-.84-.15-1.29-.54-.99-.81-1.41-1.83-1.41-3.09,0-.21,0-.42.03-.66.24-2.28,1.11-4.77,3.45-5.58,1.02.39,2.19.36,2.85,1.5v.06c0,.78.63,1.35.93,2.04ZM127.42,17.17c-.36-.81-.39-1.89-1.23-2.4-.81.99-1.35,2.25-1.35,3.54,0,.54.09,1.08.33,1.65,1.2-.33,1.95-1.65,2.22-2.76l.03-.03ZM141.32,18.16c0,.3-.03.6-.12.87l.03-.03c-.45,1.47-1.5,2.76-2.79,3.93-.6.36-1.32.57-2.07.57-.57,0-1.14-.15-1.65-.45-2.31-1.38-2.76-2.31-2.76-4.17,0-.69.09-1.38.36-1.89,1.29-1.02,2.58-2.82,4.35-2.94.24-.06.48-.09.69-.09,1.08,0,1.95.57,2.67,1.35.75.78,1.29,1.77,1.29,2.85ZM138.95,18.07c0-.18-.03-.36-.06-.54-.27-.54-.78-1.14-1.44-1.17-.12,0-.24.03-.36.06-1.02.33-2.19,1.08-2.55,2.16-.12.15-.18.33-.18.54,0,.96.66,1.86,1.71,1.86.57,0,1.17-.24,1.74-.69.6-.63,1.14-1.32,1.14-2.19v-.03ZM151.55,18.07c0,.33-.03.66-.12.99-.57,1.98-2.16,4.77-4.92,4.77s-4.41-2.34-4.41-4.98c0-.75.51-1.92.78-2.49,1.02-1.47,2.04-3.15,4.29-3.15,1.98,0,4.38,2.73,4.38,4.86ZM149.12,17.92c0-.81-1.08-2.31-1.98-2.31-1.08,0-2.73,2.01-2.73,3.51,0,1.32,1.5,2.22,1.98,2.22,1.35,0,2.73-1.74,2.73-3.39v-.03ZM162.43,20.23c0,.69.72,1.35.75,1.95,0,.27-.12.54-.45.81-.36.12-.6.48-.99.48-.06,0-.12,0-.18-.03-.48-.48-1.05-.96-1.2-1.5-1.11,1.5-2.79,2.4-4.53,2.37-.21,0-.42,0-.63-.03-1.74-.72-2.37-2.49-2.4-4.17v-.18c0-2.97,1.59-5.73,4.38-7.05.24-.12.45-.15.63-.12.42,0,.84.12,1.32.12.09,0,.42.21.54.18l.03-8.34c.24-.33.54-.45.87-.48.57,0,1.2.48,1.47.93-.03.78,0,1.59-.03,2.37-.18,4.44-.09,8.82.21,12.24,0,.03.21.42.21.45ZM159.73,17.26c0-.36-.06-.72-.15-1.11-.3-.54-.81-.81-1.32-.81-.63-.03-1.29.36-1.71.99-.81.81-1.08,1.95-1.08,3.12,0,.84.15,1.68.36,2.4.12.12.27.18.42.18.27,0,.57-.12.78-.27,1.35-1.17,2.67-2.67,2.7-4.5ZM181.63,18.16c0,.3-.03.6-.12.87l.03-.03c-.45,1.47-1.5,2.76-2.79,3.93-.6.36-1.32.57-2.07.57-.57,0-1.14-.15-1.65-.45-2.31-1.38-2.76-2.31-2.76-4.17,0-.69.09-1.38.36-1.89,1.29-1.02,2.58-2.82,4.35-2.94.24-.06.48-.09.69-.09,1.08,0,1.95.57,2.67,1.35.75.78,1.29,1.77,1.29,2.85ZM179.26,18.07c0-.18-.03-.36-.06-.54-.27-.54-.78-1.14-1.44-1.17-.12,0-.24.03-.36.06-1.02.33-2.19,1.08-2.55,2.16-.12.15-.18.33-.18.54,0,.96.66,1.86,1.71,1.86.57,0,1.17-.24,1.74-.69.6-.63,1.14-1.32,1.14-2.19v-.03ZM191.11,22.15c0,.57-.15,1.05-.78,1.29-1.17-.18-1.35-1.17-1.35-2.31,0-.42.03-.87.03-1.32,0-1.05-.36-2.01-1.41-2.4-1.56.84-2.43,3.15-2.4,5.58-.24.36-.63.6-.99.6-.18,0-.36-.06-.51-.15-.6-.42-.81-.96-.81-1.56-.03-.72.27-1.53.3-2.28,0-.24-.03-.45-.09-.69v-.09c0-1.53-.63-2.97-.63-4.32,0-.03,0-.06-.03-.09.24-.21.57-.33.9-.33.48,0,.96.24,1.2.72s.18,1.11.66,1.53c.63-.84,1.41-1.35,2.37-1.35h.18c2.4.48,3.03,2.55,3.36,5.13l-.03-.03c-.03.18-.06.36-.06.57,0,.48.09,1.02.09,1.5ZM200.29,22.24c0,.87-1.14,1.2-1.65,1.65-.42.21-.84.27-1.26.27-1.02-.03-2.04-.27-2.97-.75-1.56-.9-1.98-2.46-1.98-4.11,0-.69.06-1.41.15-2.07.3-.96.9-2.43,1.56-3.24.78-1.02,1.98-1.05,3.15-1.05.21,0,.45.03.69.09.81.48,1.95,1.11,2.25,2.22,0,.09.21.87.21.96,0,.96-.78,1.83-1.56,2.13-1.38.54-3.72.66-4.32.81-.21.66-.06,1.11.15,1.56.27.57,1.77,1.35,2.55,1.35.63,0,1.23-.21,1.68-.75.09-.03.18-.03.27-.03.45,0,.78.3,1.05.63.03.12.03.24.03.33ZM195.19,17.05c-.06.09,2.31-.21,2.7-.63.42-.45-.12-1.08-.51-1.08s-1.23.06-1.56.51c-.36.45-.63,1.2-.63,1.2ZM208.26,20.2c-.12.78-.3,1.56-1.11,2.07-.63.42-1.38.57-2.13.57-.99,0-1.98-.27-2.85-.57-.27-.39-.93-.66-.93-1.14,0-.06,0-.12.03-.18.3-.39.66-.51,1.08-.51.75,0,1.59.48,2.31.51.45,0,1.11-.21,1.11-.93-.81-.6-1.83-1.26-2.67-2.1-.72-.72-1.23-1.53-1.38-2.43.27-.93.9-1.5,1.65-1.86.75-.36,1.62-.51,2.4-.57.57.06,1.26.24,1.56.72.03.24.12.51.12.78,0,.15-.03.3-.15.48-.21.48-.54.57-.93.57-.42-.03-.93-.21-1.29-.21-.39,0-.87.18-.87.93.93,1.11,2.31,1.62,3.21,2.46.45.42.81.93.84,1.41ZM213.6,3.97c0,1.8-.42,3.63-.72,5.37-.51,3-.84,6.03-1.26,9.03-.3.33-.69.72-1.08.72-.15,0-.3-.03-.45-.12-.42-.48-.57-.99-.57-1.53,0-1.11.69-2.28.69-3.45v-.09c.66-3.78.99-7.68,1.41-11.52.21-.21.42-.3.63-.3.54,0,1.08.48,1.32.96.03.3.03.6.03.9v.03ZM211.68,25.66c0,.48-.63.72-.87,1.14h-.06c-.72,0-1.11-.39-1.5-.99-.03-.09-.03-.18-.03-.27,0-.45.36-.81.72-.93.12-.06.24-.09.36-.09.6,0,.96.6,1.32.87.03.09.06.18.06.27Z"/></svg>