<?xml version="1.0" encoding="UTF-8"?><svg id="a" xmlns="http://www.w3.org/2000/svg" xmlns:xlink="http://www.w3.org/1999/xlink" viewBox="0 0 172.23 173.2"><defs><style>.d{fill:none;}.d,.e{stroke-width:0px;}.f{clip-path:url(#b);}.g{clip-path:url(#c);}.e{fill:#fff;}</style><clipPath id="b"><rect class="d" x="66.62" y="60.1" width="39" height="53"/></clipPath><clipPath id="c"><rect class="d" x="9.62" y="10.1" width="153" height="153"/></clipPath></defs><g class="f"><path class="e" d="M84.39,107.91l1.73,1.76,1.73-1.76,15.6-15.9,1.73-1.76-3.44-3.51-1.73,1.76-11.45,11.66v-36.74h-4.88v36.73l-11.44-11.66-1.73-1.76-3.44,3.52,1.73,1.76,15.59,15.9Z"/></g><g class="g"><path class="e" d="M60.81,27.26l-.76.4-2.17-12.47,2.09-1.12,2.21,13.43-2.55,1.36-9.39-8.37.94-.5,1.71,12.46-2.55,1.36-9.91-9.32,2.11-1.12,9.13,8.77-.74.37-1.81-12.64,2.17-1.15,9.51,8.56h0Z"/><path class="e" d="M68.55,18.97l.36,5.82-1.33-1.01,9.76-2.17.42,1.91-10.97,2.44-.39-6.51-2.4-6.07,10.89-2.42.42,1.91-9.68,2.15.78-1.48,2.14,5.42h0ZM75.67,16.42l.41,1.84-8.79,1.95-.41-1.84,8.79-1.95Z"/><path class="e" d="M84.72,10.1l2.26.15-.84,12.86-2.26-.15.84-12.86ZM85.58,15.57l10.32.67-.13,1.99-10.32-.67.13-1.99ZM95.18,10.78l2.26.15-.84,12.86-2.26-.15.84-12.86Z"/><path class="e" d="M103.29,18.9l-2.48,5.27-.69-1.52,9.61,2.79-.55,1.88-10.79-3.13,2.79-5.9.8-6.48,10.71,3.11-.55,1.88-9.52-2.76,1.39-.92-.73,5.78h0ZM110.77,20.08l-.53,1.82-8.65-2.51.53-1.82,8.65,2.51Z"/><path class="e" d="M118.79,17.66l-5.46,10.54-.45-1.34,8.62,4.47-.92,1.77-9.74-5.04,5.93-11.44,2.01,1.04h0Z"/><path class="e" d="M134.89,28c.75.6,1.3,1.25,1.63,1.96.33.71.46,1.42.38,2.14-.08.72-.38,1.39-.88,2.02s-1.09,1.06-1.77,1.3c-.68.24-1.41.27-2.17.1-.77-.17-1.52-.56-2.28-1.16l-4.52-3.61,1.22-1.53,4.46,3.56c.61.49,1.2.72,1.78.7.58-.02,1.07-.28,1.48-.8.41-.51.56-1.05.45-1.62-.11-.57-.47-1.1-1.08-1.59l-4.28-3.42,1.5-.25-7.53,9.42-1.77-1.42,8.05-10.07,5.33,4.26h0Z"/><path class="e" d="M143.75,47.29l.53-.11c.59.83.96,1.6,1.1,2.29.14.7.09,1.32-.13,1.86-.23.54-.6,1-1.11,1.37-.56.4-1.14.63-1.76.67-.62.05-1.24-.1-1.85-.43-.62-.33-1.2-.88-1.75-1.64l-5.05-6.95,5.95-3.07,4.48-4.5,4.87,6.7c.7.96,1.02,1.87.95,2.72-.07.85-.5,1.56-1.29,2.13-.42.3-.9.5-1.43.59-.54.09-1.11,0-1.7-.23-.59-.24-1.19-.71-1.79-1.41h0ZM135.57,45.83l.44-1.41,4.07,5.6c.42.57.87.93,1.37,1.05.5.13.99.01,1.48-.34.52-.38.79-.86.8-1.44.01-.58-.24-1.24-.77-1.97l-3.28-4.52,1.42-1.03,3.15,4.34c.36.49.79.8,1.3.93.51.13,1.02,0,1.53-.37.38-.28.6-.64.65-1.09.05-.45-.11-.93-.48-1.44l-3.75-5.16h1.47s-4.03,4.06-4.03,4.06l-5.38,2.78Z"/><path class="e" d="M147.88,55.86c-.7.3-1.26.71-1.65,1.21-.39.51-.62,1.09-.67,1.74-.05.65.08,1.34.4,2.08.32.75.74,1.32,1.24,1.73.51.41,1.08.64,1.71.7.64.06,1.31-.06,2.01-.36l6.76-2.91.9,2.08-6.84,2.94c-1.04.45-2.06.6-3.05.47-.99-.13-1.88-.53-2.68-1.19-.8-.65-1.44-1.54-1.93-2.67-.48-1.12-.68-2.19-.61-3.23.07-1.04.4-1.96.98-2.77.58-.81,1.39-1.44,2.43-1.89l6.83-2.94.9,2.08-6.76,2.91h0Z"/><path class="e" d="M151.27,67.7l.43,2.26c-.49.17-.9.46-1.21.89-.32.43-.52.95-.62,1.58-.1.62-.07,1.32.08,2.08.22,1.14.57,2,1.05,2.6.48.6,1.03.84,1.63.72.5-.1.83-.36,1-.79.17-.43.23-1.16.16-2.18l-.17-2.8c-.09-1.57.08-2.75.5-3.55.42-.8,1.15-1.3,2.17-1.49.78-.15,1.49-.05,2.15.31.66.36,1.22.94,1.7,1.73.47.8.82,1.77,1.04,2.91.22,1.14.24,2.17.07,3.12-.17.94-.51,1.73-1.01,2.37-.5.64-1.15,1.06-1.95,1.26l-.43-2.26c.44-.14.79-.4,1.05-.79.27-.38.44-.86.52-1.44.08-.57.05-1.23-.09-1.96-.2-1.04-.53-1.83-.98-2.38s-.98-.77-1.56-.66c-.45.09-.76.33-.93.75-.17.41-.23,1.09-.18,2.02l.14,2.84c.06,1.17.02,2.1-.12,2.81-.14.71-.4,1.25-.79,1.61-.39.37-.93.62-1.63.75-.81.15-1.57.04-2.27-.33-.7-.38-1.3-.98-1.81-1.81-.51-.83-.87-1.84-1.1-3.03-.23-1.22-.26-2.32-.07-3.32.19-1,.55-1.83,1.1-2.49.55-.67,1.25-1.1,2.11-1.31h0Z"/><path class="e" d="M162.22,81.86l.11,2.27-12.88.61-.11-2.27,12.87-.61Z"/><path class="e" d="M149.85,99.19v-.93l11.55,1.29-.24,2.19-12.81-1.42.32-2.87,12.55-7.7v.92l-11.65-1.3.24-2.19,12.81,1.42-.33,2.94-12.44,7.66Z"/><path class="e" d="M152.88,107.21l-5.14-2.74,1.56-.61-3.26,9.45-1.85-.64,3.67-10.62,5.76,3.08,6.43,1.13-3.64,10.54-1.85-.64,3.24-9.37.85,1.44-5.74-1.02h0ZM151.32,114.62l-1.79-.62,2.94-8.51,1.79.62-2.94,8.51Z"/><path class="e" d="M147.4,115.76l-1.18,1.98c-.48-.2-.98-.25-1.5-.14-.52.11-1.02.37-1.51.77-.49.4-.93.94-1.33,1.61-.59.99-.9,1.88-.94,2.64-.04.77.21,1.31.75,1.62.43.26.86.28,1.27.08.41-.21.94-.72,1.57-1.53l1.73-2.21c.97-1.23,1.88-2.01,2.73-2.32.85-.32,1.72-.21,2.62.32.68.41,1.15.96,1.4,1.66.25.71.29,1.51.12,2.42-.17.91-.56,1.87-1.16,2.87-.59.99-1.26,1.79-2.01,2.38-.75.59-1.53.96-2.33,1.1-.8.15-1.56.03-2.3-.36l1.18-1.98c.42.18.86.22,1.31.11.45-.11.9-.36,1.34-.73.44-.38.86-.89,1.24-1.53.54-.91.82-1.72.85-2.43.03-.72-.22-1.23-.73-1.53-.39-.24-.79-.25-1.19-.06-.4.19-.89.66-1.48,1.39l-1.78,2.22c-.73.91-1.38,1.59-1.95,2.03-.57.44-1.13.67-1.66.68-.54.01-1.11-.16-1.72-.52-.71-.42-1.2-1.01-1.48-1.76-.27-.75-.32-1.6-.15-2.56.17-.96.57-1.96,1.19-3,.63-1.06,1.35-1.91,2.15-2.53.8-.62,1.63-1,2.48-1.13.85-.13,1.67,0,2.45.42h0Z"/><path class="e" d="M140.06,127.78l-1.56,1.69c-.43-.3-.9-.45-1.44-.44-.53,0-1.08.15-1.63.45-.56.29-1.1.73-1.63,1.3-.78.85-1.27,1.65-1.46,2.39-.19.74-.06,1.32.4,1.74.37.34.78.45,1.23.34.45-.12,1.07-.51,1.85-1.17l2.15-1.81c1.21-1.01,2.26-1.58,3.15-1.71.9-.13,1.73.15,2.49.86.58.53.93,1.17,1.03,1.91.1.74-.02,1.54-.38,2.39-.36.86-.93,1.71-1.72,2.57-.78.85-1.6,1.49-2.46,1.92-.86.43-1.69.63-2.5.6-.81-.02-1.54-.3-2.18-.82l1.56-1.69c.38.27.8.39,1.26.38.47-.01.95-.16,1.47-.44.51-.28,1.02-.69,1.52-1.24.71-.78,1.16-1.51,1.33-2.21.17-.7.04-1.25-.4-1.65-.34-.31-.72-.41-1.15-.3-.43.11-1.01.46-1.73,1.06l-2.2,1.81c-.9.74-1.68,1.27-2.33,1.58-.65.31-1.24.42-1.77.32-.53-.1-1.05-.38-1.57-.86-.61-.56-.97-1.23-1.08-2.02-.11-.79.01-1.63.38-2.53.37-.9.96-1.8,1.78-2.69.84-.91,1.71-1.59,2.63-2.03.91-.44,1.8-.64,2.66-.6.86.05,1.63.35,2.31.91h0Z"/><path class="e" d="M128.82,141.92l-2.63-5.2,1.62.4-8.11,5.85-1.15-1.59,9.11-6.58,2.94,5.83,4.61,4.62-9.04,6.53-1.15-1.59,8.04-5.81-.13,1.66-4.11-4.13h0ZM123.29,147.09l-1.11-1.53,7.3-5.27,1.11,1.53-7.3,5.27Z"/><path class="e" d="M119.44,145.77l-2.1.94c-.27-.44-.65-.77-1.14-.98-.49-.21-1.05-.29-1.68-.24-.63.05-1.3.24-2.01.56-1.06.47-1.82,1.01-2.29,1.62-.47.61-.58,1.19-.32,1.76.21.46.54.72,1,.8.46.07,1.18-.05,2.16-.35l2.69-.81c1.5-.45,2.69-.56,3.57-.33.87.23,1.53.82,1.95,1.77.32.72.39,1.44.19,2.17-.2.72-.63,1.4-1.29,2.05-.67.64-1.53,1.21-2.6,1.69-1.06.47-2.06.74-3.02.79-.96.05-1.8-.09-2.54-.43-.74-.34-1.3-.88-1.68-1.61l2.1-.94c.24.39.58.68,1.01.85.43.17.94.23,1.52.17.58-.05,1.21-.23,1.89-.54.96-.43,1.66-.93,2.09-1.51.43-.57.53-1.13.28-1.67-.19-.42-.5-.66-.94-.74-.44-.07-1.11.02-2.01.29l-2.73.79c-1.12.33-2.04.51-2.76.54-.72.03-1.3-.1-1.75-.4-.45-.3-.82-.77-1.11-1.41-.34-.75-.4-1.51-.2-2.28.21-.77.65-1.5,1.35-2.18.69-.68,1.59-1.27,2.7-1.77,1.13-.51,2.2-.79,3.22-.83,1.02-.05,1.91.12,2.68.5.77.38,1.36.96,1.77,1.75h0Z"/><path class="e" d="M94.16,154.19l.22,1.71-6.46.82-.8-6.29,1.67-.21.94,5.27-.62-.65,5.05-.64h0ZM88.62,155.88c-.09-.8-.03-1.56.18-2.3.21-.74.55-1.4,1.03-2.01.48-.6,1.09-1.1,1.83-1.51.74-.4,1.61-.66,2.61-.79,1.01-.13,1.97-.09,2.87.1s1.71.54,2.43,1.04c.72.49,1.3,1.13,1.76,1.9.46.77.75,1.67.88,2.69s.07,1.97-.19,2.83c-.25.86-.67,1.62-1.24,2.28-.57.65-1.28,1.19-2.12,1.61-.84.42-1.78.69-2.82.82-1.31.17-2.48.1-3.52-.2-1.04-.3-1.9-.79-2.6-1.45-.7-.66-1.17-1.46-1.43-2.4l2.28-.29c.2.59.54,1.07,1.01,1.47.47.39,1.05.67,1.72.82.68.16,1.44.18,2.3.07,1-.13,1.84-.42,2.53-.88.69-.46,1.19-1.07,1.5-1.81.32-.74.41-1.6.29-2.58-.12-.98-.44-1.79-.94-2.44-.5-.65-1.16-1.12-1.97-1.4-.81-.28-1.73-.35-2.76-.22-1,.13-1.85.41-2.56.84-.71.43-1.24.99-1.59,1.65-.35.66-.5,1.4-.43,2.21l-1.03-.06h0Z"/><path class="e" d="M82.92,157.17l-5.22-.52c-.75-.07-1.37.04-1.84.34-.47.3-.74.74-.8,1.34-.06.6.11,1.1.52,1.48.4.38.99.61,1.74.68l5.54.55-1.14,1.17,1.21-12.14,2.26.22-1.28,12.82-6.99-.7c-.9-.09-1.67-.33-2.32-.72-.65-.39-1.13-.9-1.46-1.51-.32-.61-.45-1.31-.37-2.08.07-.75.33-1.4.77-1.94.44-.54,1.01-.93,1.73-1.19.71-.26,1.52-.34,2.42-.25l5.42.54-.19,1.91h0ZM80.49,155.87l-2.65-.26-4.5-6.51,2.7.27,4.45,6.5h0Z"/><path class="e" d="M65.8,146.49c1.39.47,2.52,1.15,3.39,2.04.87.89,1.44,1.9,1.71,3.05.27,1.15.18,2.35-.24,3.61-.43,1.26-1.09,2.26-2,3.01-.91.75-1.98,1.21-3.21,1.39-1.23.18-2.54.03-3.93-.44-1.39-.47-2.52-1.15-3.39-2.04-.87-.89-1.44-1.9-1.71-3.05-.27-1.15-.18-2.35.24-3.61.43-1.26,1.09-2.26,2-3.01s1.98-1.21,3.21-1.39c1.23-.18,2.54-.03,3.93.44ZM65.15,148.41c-.99-.33-1.9-.44-2.74-.33-.84.11-1.57.44-2.19.97-.62.53-1.08,1.24-1.39,2.14-.3.9-.37,1.75-.2,2.54.17.8.55,1.49,1.15,2.1.6.6,1.39,1.07,2.37,1.4.98.33,1.89.44,2.73.32.84-.11,1.58-.43,2.2-.96.62-.53,1.08-1.24,1.39-2.14.3-.9.37-1.75.2-2.54-.17-.8-.56-1.49-1.16-2.1-.6-.6-1.39-1.07-2.37-1.4Z"/><path class="e" d="M44.49,135.98l.7.49-10.16,7.56-1.94-1.37,10.99-8.02,2.36,1.66-3.25,12.15-.87-.61,10.36-7.15,2.36,1.66-3.86,13.05-1.95-1.38,3.71-12.1.66.49-10.47,7.31-2.01-1.42,3.36-12.35h0Z"/><path class="e" d="M34.07,122.55c.84,1.2,1.34,2.42,1.51,3.66.17,1.23.02,2.39-.45,3.47-.47,1.08-1.26,2-2.35,2.75s-2.23,1.17-3.4,1.23c-1.18.06-2.31-.2-3.41-.8-1.09-.59-2.06-1.5-2.89-2.7-.84-1.2-1.34-2.42-1.51-3.66-.17-1.23-.02-2.39.45-3.47.47-1.08,1.26-2,2.35-2.75,1.09-.76,2.23-1.17,3.4-1.23,1.18-.06,2.31.2,3.41.8,1.09.59,2.06,1.49,2.89,2.7ZM32.4,123.7c-.59-.86-1.26-1.49-2-1.9-.74-.4-1.52-.58-2.33-.53-.81.05-1.61.35-2.39.89-.78.54-1.34,1.18-1.68,1.92-.34.74-.45,1.53-.33,2.37.12.84.48,1.68,1.07,2.54.59.85,1.25,1.48,2,1.89s1.52.59,2.34.53c.81-.05,1.61-.35,2.39-.89.78-.54,1.34-1.18,1.68-1.92.34-.74.44-1.53.32-2.38-.12-.84-.48-1.69-1.06-2.53h0Z"/><path class="e" d="M23.53,104.52l.42.83-10.87,4.1-.78-2.06,12.06-4.55,1.02,2.7-7.68,12.56-.42-.82,10.97-4.14.78,2.06-12.06,4.55-1.04-2.76,7.6-12.47h0Z"/><path class="e" d="M10.91,100.19l11.75-1.69-.82,1.14-1.38-9.61,1.97-.28,1.56,10.85-12.76,1.84-.32-2.24h0Z"/><path class="e" d="M9.77,88.59l-.04-2.27,12.89-.21.04,2.27-12.89.21Z"/><path class="e" d="M22.78,71.67l-.04.93-11.49-1.72.33-2.18,12.75,1.91-.43,2.85-12.83,7.21.03-.92,11.59,1.74-.33,2.18-12.75-1.91.44-2.92,12.72-7.18Z"/><path class="e" d="M20.07,63.54l5.04,2.93-1.58.55,3.62-9.32,1.83.71-4.07,10.48-5.63-3.3-6.38-1.37,4.04-10.39,1.83.71-3.59,9.24-.79-1.47,5.7,1.24h0ZM21.91,56.2l1.76.69-3.26,8.39-1.76-.69,3.26-8.39Z"/></g></svg>