<?xml version="1.0" encoding="UTF-8"?><svg id="a" xmlns="http://www.w3.org/2000/svg" xmlns:xlink="http://www.w3.org/1999/xlink" viewBox="0 0 118.86 39"><defs><style>.d{fill:none;}.d,.e{stroke-width:0px;}.f{clip-path:url(#b);}.g{clip-path:url(#c);}.e{fill:teal;}</style><clipPath id="b"><rect class="d" x="-3.7" y="0" width="53" height="39"/></clipPath><clipPath id="c"><rect class="d" x="69.3" y="0" width="53" height="39"/></clipPath></defs><g class="f"><path class="e" d="M1.5,21.23l-1.76-1.73,1.76-1.73L17.4,2.17l1.76-1.73,3.51,3.44-1.76,1.73-11.66,11.45h36.74v4.88H9.26l11.66,11.44,1.76,1.73-3.52,3.44-1.76-1.73L1.5,21.23Z"/></g><g class="g"><path class="e" d="M117.1,21.23l1.76-1.73-1.76-1.73-15.9-15.6-1.76-1.73-3.51,3.44,1.76,1.73,11.66,11.45h-36.74v4.88h36.73l-11.66,11.44-1.76,1.73,3.52,3.44,1.76-1.73,15.9-15.59Z"/></g></svg>