<?xml version="1.0" encoding="UTF-8"?><svg id="a" xmlns="http://www.w3.org/2000/svg" xmlns:xlink="http://www.w3.org/1999/xlink" viewBox="0 0 173.65 171.11"><defs><style>.c{fill:none;}.c,.d,.e{stroke-width:0px;}.f{clip-path:url(#b);}.e{fill:#0c373a;}</style><clipPath id="b"><rect class="c" x="67.32" y="59.05" width="39" height="53"/></clipPath></defs><g class="f"><path class="d" d="M85.1,106.86l1.73,1.76,1.73-1.76,15.6-15.9,1.73-1.76-3.44-3.51-1.73,1.76-11.45,11.66v-36.74h-4.88v36.73l-11.44-11.66-1.73-1.76-3.44,3.52,1.73,1.76,15.59,15.9Z"/></g><path class="e" d="M50.74,16.83l1.07,1.7-8.18,5.19.36-1.77,6.56,10.41-1.93,1.23-6.94-11.01,9.06-5.75h0ZM45.65,26.8l7.89-5.01,1.07,1.7-7.89,5.01-1.07-1.7Z"/><path class="e" d="M53.92,15.45l2.08-.95,5.41,11.85-2.08.95-5.41-11.85Z"/><path class="e" d="M74.77,20.56l-.87.35-3.1-11.33,2.14-.59,3.44,12.57-2.81.77-11.89-8.9.86-.35,3.13,11.43-2.14.59-3.44-12.57,2.87-.79,11.81,8.82Z"/><path class="e" d="M84.07,8.06c1.48-.05,2.78.18,3.91.7,1.13.51,2.02,1.24,2.68,2.2.65.96,1,2.09,1.04,3.38.04,1.3-.24,2.44-.83,3.44-.59,1-1.44,1.79-2.53,2.36-1.1.58-2.38.89-3.86.94l-5.87.18-.4-13.03,5.87-.18ZM80.87,20.4l-1.3-1.18,5-.16c.99-.03,1.85-.25,2.59-.65.73-.4,1.29-.94,1.68-1.63.39-.69.57-1.48.54-2.37-.03-.9-.26-1.68-.69-2.34-.43-.66-1.02-1.16-1.78-1.52-.76-.35-1.63-.51-2.62-.48l-5,.16,1.23-1.26.35,11.43h0Z"/><path class="e" d="M104.26,23.68c-1.42-.4-2.6-1.03-3.52-1.88-.93-.85-1.55-1.85-1.87-3-.33-1.15-.31-2.36.06-3.66.36-1.29.98-2.34,1.86-3.15.87-.81,1.93-1.33,3.16-1.57,1.23-.24,2.56-.16,3.98.24s2.6,1.03,3.52,1.88c.92.85,1.55,1.85,1.87,3,.33,1.15.31,2.36-.06,3.66-.36,1.29-.98,2.34-1.86,3.15-.87.81-1.93,1.33-3.16,1.57-1.23.24-2.56.16-3.98-.24h0ZM104.81,21.71c1.01.29,1.94.35,2.77.19.84-.16,1.55-.52,2.15-1.09.6-.57,1.03-1.31,1.29-2.24.26-.93.28-1.79.07-2.58-.21-.79-.64-1.48-1.27-2.06-.63-.58-1.45-1.01-2.46-1.29-1-.28-1.92-.35-2.76-.19-.84.16-1.56.52-2.16,1.09-.6.57-1.03,1.31-1.28,2.24-.26.93-.28,1.79-.07,2.58.21.79.64,1.48,1.27,2.06.63.58,1.45,1.01,2.45,1.29h0Z"/><path class="e" d="M117.43,22.38c-.38.68-.57,1.34-.57,1.99,0,.65.17,1.25.53,1.8.36.55.89,1.03,1.6,1.43.71.4,1.4.61,2.05.62.65.02,1.25-.15,1.8-.49.55-.34,1.01-.85,1.39-1.53l3.62-6.49,1.99,1.12-3.66,6.57c-.56,1-1.27,1.75-2.15,2.25-.87.5-1.83.73-2.87.7-1.04-.03-2.1-.35-3.18-.96-1.07-.6-1.89-1.34-2.47-2.21-.58-.88-.88-1.82-.91-2.82-.03-1.01.23-2.01.79-3.01l3.66-6.57,1.99,1.12-3.62,6.49h0Z"/><path class="e" d="M136.22,27.33l1.71,1.52-7.89,8.98-1.71-1.52,7.89-8.98ZM132.9,22.97l9.77,8.65-1.33,1.51-9.76-8.65,1.33-1.51Z"/><path class="e" d="M157.54,53.36l-11.17,6.65-1.11-1.88,10.57-6.3.33.63-13.63,1.07-1.25-2.11,7.44-11.49.39.59-10.56,6.29-1.11-1.88,11.17-6.65,1.79,3.02-7.35,11.17-.58-.99,13.28-1.14,1.79,3.02h0Z"/><path class="e" d="M148.46,68.73c-.38-1.43-.44-2.77-.18-4,.26-1.23.8-2.28,1.61-3.15.82-.86,1.87-1.47,3.17-1.81,1.29-.35,2.51-.35,3.65,0,1.14.35,2.12.99,2.95,1.93.83.94,1.44,2.13,1.82,3.56.38,1.43.44,2.77.18,4-.26,1.23-.8,2.28-1.61,3.15-.82.86-1.87,1.47-3.16,1.81-1.3.35-2.51.35-3.65,0-1.14-.35-2.12-.99-2.95-1.93-.83-.94-1.44-2.13-1.82-3.56ZM150.43,68.2c.27,1.02.69,1.85,1.25,2.49.56.64,1.24,1.08,2.03,1.3.79.23,1.65.22,2.57-.03.92-.25,1.67-.66,2.25-1.26.57-.59.94-1.3,1.12-2.14.17-.84.12-1.77-.14-2.78-.27-1.01-.68-1.83-1.25-2.48-.57-.65-1.24-1.08-2.03-1.31-.79-.23-1.65-.22-2.57.03-.93.25-1.68.66-2.25,1.26-.57.59-.94,1.31-1.12,2.15-.17.84-.12,1.77.14,2.78h0Z"/><path class="e" d="M157.8,78.86l.17,5.3c.02.76.22,1.36.58,1.8.36.44.84.64,1.44.62.61-.02,1.08-.26,1.41-.71.33-.46.48-1.07.45-1.83l-.18-5.63,1.31.98-12.29.39-.07-2.29,12.98-.42.23,7.11c.03.92-.11,1.72-.42,2.42-.31.7-.74,1.25-1.31,1.66-.57.41-1.25.62-2.03.65-.76.02-1.44-.15-2.03-.52-.59-.37-1.07-.89-1.42-1.57-.35-.68-.54-1.48-.57-2.39l-.18-5.51,1.94-.06h0ZM156.82,81.47l.08,2.69-5.91,5.37-.09-2.74,5.91-5.32h0Z"/><path class="e" d="M156.7,94.86l-5.56-1.89,1.45-.86-1.71,9.97-1.95-.34,1.92-11.2,6.22,2.13,6.57.08-1.9,11.12-1.95-.34,1.69-9.88,1.08,1.3-5.87-.08ZM156.36,102.51l-1.88-.32,1.54-8.97,1.88.32-1.54,8.97h0Z"/><path class="e" d="M155.71,119.7l-14.41.02,1.05-2.21,13.38.12-.38.8-8.49-10.37,1.05-2.21,9.03,11.27-1.23,2.59h0ZM149.28,109.91l1.7.82-3.92,8.22-1.7-.82,3.92-8.22Z"/><path class="e" d="M140.77,130.63l.25.49c-.65.8-1.29,1.36-1.93,1.69-.64.33-1.26.45-1.84.37-.59-.08-1.13-.31-1.63-.71-.54-.43-.92-.94-1.13-1.53-.21-.59-.24-1.23-.08-1.92.16-.69.53-1.41,1.12-2.15l5.39-6.8,4.58,4.97,5.58,3.15-5.2,6.56c-.75.94-1.54,1.5-2.39,1.66-.84.16-1.65-.06-2.42-.68-.41-.33-.73-.74-.95-1.24-.23-.5-.31-1.07-.23-1.72.07-.64.37-1.35.88-2.13h0ZM139.98,122.28l1.48.05-4.34,5.48c-.45.56-.66,1.1-.65,1.62.01.52.25.97.73,1.35.51.41,1.04.54,1.61.39.57-.14,1.14-.57,1.71-1.29l3.5-4.42,1.38,1.1-3.36,4.24c-.38.48-.56.99-.55,1.52.02.53.27.99.77,1.39.37.3.78.41,1.23.34.45-.07.87-.36,1.26-.85l4-5.05.39,1.44-5.02-2.83-4.15-4.49h0Z"/><path class="e" d="M126.33,135.34c1.16-.92,2.35-1.5,3.58-1.75,1.23-.25,2.4-.17,3.52.24,1.12.41,2.09,1.14,2.92,2.19.83,1.06,1.31,2.17,1.45,3.36.13,1.18-.06,2.35-.59,3.49-.53,1.14-1.37,2.17-2.53,3.09-1.16.92-2.35,1.5-3.58,1.75-1.23.25-2.4.17-3.52-.24-1.12-.41-2.09-1.14-2.92-2.2-.83-1.06-1.31-2.17-1.45-3.36-.14-1.18.06-2.35.59-3.49.53-1.14,1.37-2.17,2.53-3.09h0ZM127.59,136.95c-.82.65-1.42,1.37-1.78,2.14-.36.77-.49,1.57-.39,2.39.11.82.45,1.6,1.05,2.36.59.76,1.27,1.28,2.04,1.57.77.29,1.57.35,2.4.18.83-.17,1.66-.59,2.49-1.24.82-.65,1.41-1.36,1.77-2.14.37-.78.5-1.58.39-2.39-.11-.82-.46-1.6-1.05-2.36-.59-.75-1.27-1.28-2.04-1.57-.77-.29-1.57-.35-2.41-.17-.84.18-1.67.59-2.48,1.23h0Z"/><path class="e" d="M119.64,146.81c-.32-.7-.75-1.25-1.27-1.63-.52-.38-1.11-.59-1.77-.62-.66-.03-1.35.12-2.09.46-.74.35-1.31.78-1.71,1.3-.39.52-.62,1.11-.66,1.75-.05.65.09,1.32.42,2.03l3.11,6.75-2.07.96-3.15-6.83c-.48-1.04-.67-2.06-.56-3.06.11-1,.48-1.92,1.12-2.74.64-.82,1.52-1.5,2.64-2.02,1.11-.52,2.19-.75,3.23-.71,1.05.04,1.98.35,2.82.91.83.56,1.49,1.37,1.97,2.41l3.15,6.83-2.07.96-3.11-6.75h0Z"/><path class="e" d="M110.08,159.05l-12.71,2.85-.44-1.97,12.71-2.84.44,1.97ZM104.61,159.19l-2.23.5-2.6-11.69,2.23-.5,2.6,11.69Z"/><path class="e" d="M74.68,149.24l.86.09-5.19,11.7-2.38-.24,5.69-12.52,2.89.29,3.15,12.32-1.07-.11,5.56-11.43,2.89.29,3.06,13.41-2.4-.24-2.72-12.51.82.1-5.58,11.64-2.46-.25-3.15-12.55h0Z"/><path class="e" d="M53.83,154.94l-2.11-.87,4.95-12.05,2.11.87-4.95,12.05ZM64.53,153.47l-9.64-3.99.76-1.86,9.64,3.99-.76,1.86ZM63.6,158.98l-2.11-.87,4.95-12.05,2.11.87-4.95,12.05Z"/><path class="e" d="M40.81,146.92l2.55-14.23,1.98,1.43-2.5,13.19-.72-.52,11.69-6.54,1.98,1.43-12.66,6.9-2.32-1.68h0ZM51.55,142.31l-1.1,1.54-7.36-5.33,1.1-1.54,7.36,5.33Z"/><path class="e" d="M35.83,143.18l-9-9.45,1.45-1.39,9,9.45-1.45,1.39ZM32.89,138.55l-1.58-1.66,8.63-8.27,1.58,1.66-8.63,8.27Z"/><path class="e" d="M25.9,107.7l.37.79-12.66,1.57-1.02-2.17,13.62-1.56,1.24,2.64-8.9,9.07-.46-.97,12.63-1.11,1.24,2.64-9.87,9.55-1.03-2.18,9.28-8.78.34.76-12.82,1.2-1.05-2.25,9.09-9.18h0Z"/><path class="e" d="M17.94,99.48l5.87-.07-1.08,1.3-1.7-9.97,1.95-.33,1.91,11.2-6.58.07-6.23,2.12-1.89-11.12,1.95-.33,1.68,9.88-1.45-.86,5.56-1.89h0ZM15.73,92.15l1.88-.32,1.53,8.98-1.88.32-1.53-8.98Z"/><path class="e" d="M10.48,76.88c.16-1.47.58-2.73,1.24-3.79.66-1.05,1.51-1.83,2.55-2.34,1.04-.51,2.2-.7,3.49-.55,1.28.15,2.38.58,3.28,1.32.9.73,1.56,1.68,1.97,2.86.41,1.17.54,2.49.37,3.97l-.66,5.85-12.91-1.46.66-5.85h0ZM22.2,81.82l-1.35,1.12.56-4.99c.11-.99.02-1.88-.27-2.66-.29-.79-.75-1.42-1.37-1.9-.62-.48-1.38-.78-2.26-.88-.89-.1-1.7.02-2.41.35-.71.33-1.3.85-1.75,1.55s-.74,1.55-.85,2.54l-.56,4.99-1.06-1.4,11.32,1.28h0Z"/><path class="e" d="M27.16,63.14c-.51,1.39-1.22,2.52-2.14,3.38-.92.86-1.96,1.41-3.12,1.65-1.16.24-2.37.13-3.63-.34-1.26-.46-2.25-1.16-2.99-2.1s-1.17-2.03-1.32-3.28c-.14-1.25.04-2.57.55-3.96.51-1.39,1.22-2.52,2.14-3.38.92-.86,1.96-1.41,3.12-1.65,1.16-.24,2.37-.13,3.63.34,1.26.46,2.25,1.16,2.99,2.1.73.94,1.17,2.03,1.32,3.28.14,1.25-.04,2.57-.55,3.96ZM25.24,62.44c.36-.99.5-1.91.4-2.76-.09-.85-.4-1.59-.92-2.23-.52-.64-1.22-1.13-2.12-1.46-.9-.33-1.75-.42-2.56-.27-.81.15-1.52.52-2.14,1.11-.62.59-1.11,1.37-1.47,2.36-.36.98-.49,1.9-.4,2.75.09.86.4,1.6.91,2.24.52.64,1.22,1.13,2.12,1.46.9.33,1.75.42,2.56.27.81-.15,1.52-.53,2.14-1.12.62-.59,1.11-1.38,1.47-2.36h0Z"/></svg>