<?xml version="1.0" encoding="UTF-8"?><svg id="a" xmlns="http://www.w3.org/2000/svg" xmlns:xlink="http://www.w3.org/1999/xlink" viewBox="0 0 53.22 51.75"><defs><style>.c{fill:none;}.c,.d,.e{stroke-width:0px;}.f{clip-path:url(#b);}.d{fill:#faddb0;}.e{fill:#f6872e;}</style><clipPath id="b"><rect class="c" x="1.61" y=".87" width="50" height="50" transform="translate(-6.92 41.79) rotate(-69.59)"/></clipPath></defs><g class="f"><path class="e" d="M17.89,49.3c12.94,4.81,27.33-1.77,32.14-14.71,4.81-12.94-1.77-27.33-14.71-32.14C22.39-2.36,8,4.22,3.18,17.16c-4.81,12.94,1.77,27.33,14.71,32.14Z"/><path class="d" d="M19.11,46.58c-2.95-1.1-5.65-2.83-7.93-5.13-4.15-4.18-6.42-9.72-6.4-15.61.02-5.89,2.33-11.41,6.51-15.56,8.62-8.57,22.6-8.52,31.17.1,8.57,8.62,8.52,22.6-.1,31.17-4.18,4.15-9.72,6.42-15.61,6.4-2.65,0-5.22-.48-7.63-1.38h0ZM34.29,5.9c-7.58-2.82-16.44-1.21-22.54,4.85-4.05,4.02-6.29,9.38-6.31,15.09-.02,5.71,2.19,11.08,6.21,15.13,4.02,4.05,9.38,6.29,15.09,6.31,5.71.02,11.08-2.19,15.13-6.21,8.36-8.3,8.41-21.86.1-30.22-2.24-2.26-4.87-3.91-7.68-4.95h0Z"/><path class="d" d="M32.97,23.24c-.23-.09-.41-.3-.43-.57-.04-.43-.16-.85-.34-1.25-.32-.7-.84-1.28-1.49-1.69-.31-.2-.41-.61-.22-.92.2-.31.61-.41.92-.22.88.54,1.57,1.33,2,2.27.24.53.4,1.1.45,1.68.04.37-.23.7-.6.73-.1.01-.21,0-.3-.04h0Z"/><path class="d" d="M20.9,42.45l-.74-.27c-2.58-.96-3.9-3.84-2.94-6.42l2.08-5.59c-2.44-3.18-2.78-7.46-.87-11.02,2.08-3.87,6.54-5.97,10.85-5.11,2.96.6,5.48,2.43,6.93,5.02,1.45,2.6,1.68,5.69.65,8.48-1.21,3.26-4.05,5.68-7.46,6.39l-2.08,5.59c-.96,2.58-3.84,3.9-6.42,2.94ZM30.39,15.74c-.44-.16-.91-.3-1.38-.39-3.73-.75-7.59,1.07-9.4,4.43-1.72,3.19-1.34,7.04.95,9.82.16.2.21.46.12.7l-2.2,5.92c-.7,1.89.26,3.99,2.15,4.69l.74.27c1.89.7,3.99-.26,4.69-2.15l2.2-5.92c.09-.24.3-.41.54-.45,3.1-.53,5.7-2.67,6.79-5.6.9-2.42.7-5.1-.56-7.36-1.03-1.84-2.67-3.24-4.64-3.97h0Z"/><path class="d" d="M27.49,37.11l-8.84-3.29c-.35-.13-.52-.52-.39-.86.13-.35.52-.52.86-.39l8.84,3.29c.35.13.52.52.39.86-.13.35-.52.52-.86.39Z"/><path class="d" d="M41.52,29.71l-1.98-.74c-.35-.13-.52-.52-.39-.86.13-.35.52-.52.86-.39l1.98.74c.35.13.52.52.39.86-.13.35-.52.52-.86.39Z"/><path class="d" d="M14.85,19.79l-1.98-.74c-.35-.13-.52-.52-.39-.86.13-.35.52-.52.86-.39l1.98.74c.35.13.52.52.39.86-.13.35-.52.52-.86.39Z"/><path class="d" d="M31.8,12.04c-.35-.13-.52-.52-.39-.86l.74-1.98c.13-.35.52-.52.86-.39.35.13.52.52.39.86l-.74,1.98c-.13.35-.52.52-.86.39Z"/><path class="d" d="M39.18,18.9c-.16-.06-.3-.18-.37-.35-.15-.34,0-.74.33-.89l1.92-.88c.34-.15.74,0,.89.33.15.34,0,.74-.33.89l-1.92.88c-.17.08-.35.08-.51.02h0Z"/><path class="d" d="M13.31,30.74c-.16-.06-.3-.18-.37-.35-.15-.34,0-.74.33-.89l1.92-.88c.34-.15.74,0,.89.33.15.34,0,.74-.33.89l-1.92.88c-.17.08-.35.08-.51.02h0Z"/><path class="d" d="M21.72,12.4c-.16-.06-.3-.18-.37-.35l-.88-1.91c-.15-.34,0-.74.33-.89.34-.15.74,0,.89.33l.88,1.92c.15.34,0,.74-.33.89-.17.08-.35.08-.51.02h0Z"/><path class="d" d="M33.56,38.28c-.16-.06-.3-.18-.37-.35l-.88-1.92c-.15-.34,0-.74.33-.89.34-.15.74,0,.89.33l.88,1.92c.15.34,0,.74-.33.89-.17.08-.35.08-.51.02h0Z"/><path class="d" d="M23.9,38.41l-3.37-1.25c-.35-.13-.52-.52-.39-.86.13-.35.52-.52.86-.39l3.37,1.25c.35.13.52.52.39.86-.13.35-.52.52-.86.39Z"/><path class="d" d="M22.69,40.36l-2.53-.94c-.35-.13-.52-.52-.39-.86.13-.35.52-.52.86-.39l2.53.94c.35.13.52.52.39.86-.13.35-.52.52-.86.39Z"/><path class="d" d="M24.55,36.02c-.32-.12-.5-.47-.41-.8,1.44-5.3,3.53-7.81,4.82-9.08-.65-.14-1.37-.47-1.97-1.18-.92.15-1.68-.07-2.26-.39.15,1.8.09,5.07-2.29,10.02-.16.33-.56.47-.9.31-.33-.16-.47-.56-.32-.89,2.65-5.51,2.26-8.63,2.07-10.12-.03-.27-.06-.47-.07-.66-.01-.32.19-.61.49-.72.3-.11.64-.02.84.22.39.47,1.22,1.2,2.47.85.31-.09.65.04.82.31.72,1.08,1.82,1.07,2.42.97.32-.05.63.1.78.38.15.28.11.63-.1.86-.13.14-.28.28-.48.46-1.12,1.01-3.45,3.12-5.05,9.01-.1.36-.47.57-.82.47-.02,0-.04-.01-.06-.02h0Z"/></g></svg>